<svg width="446" height="44" viewBox="0 0 446 44" fill="none" xmlns="http://www.w3.org/2000/svg">
<path d="M6.10227 30.6875C5.13636 30.6875 4.25852 30.4375 3.46875 29.9375C2.67898 29.4375 2.0483 28.6875 1.5767 27.6875C1.10511 26.6875 0.869318 25.446 0.869318 23.9631C0.869318 22.4233 1.11364 21.1562 1.60227 20.1619C2.09091 19.1676 2.73011 18.4318 3.51989 17.9545C4.31534 17.4773 5.17045 17.2386 6.08523 17.2386C6.77273 17.2386 7.3608 17.358 7.84943 17.5966C8.33807 17.8295 8.74148 18.1307 9.05966 18.5C9.37784 18.8693 9.61932 19.2528 9.78409 19.6506H9.86932V13.0455H14.0369V30.5H9.91193V28.3778H9.78409C9.60795 28.7812 9.35795 29.1591 9.03409 29.5114C8.71023 29.8636 8.30398 30.1477 7.81534 30.3636C7.33239 30.5795 6.76136 30.6875 6.10227 30.6875ZM7.55114 27.4403C8.05682 27.4403 8.48864 27.2983 8.84659 27.0142C9.20455 26.7244 9.48011 26.3182 9.6733 25.7955C9.86648 25.2727 9.96307 24.6591 9.96307 23.9545C9.96307 23.2386 9.86648 22.6222 9.6733 22.1051C9.4858 21.5881 9.21023 21.1903 8.84659 20.9119C8.48864 20.6335 8.05682 20.4943 7.55114 20.4943C7.03409 20.4943 6.59659 20.6364 6.23864 20.9205C5.88068 21.2045 5.60795 21.6051 5.42045 22.1222C5.23864 22.6392 5.14773 23.25 5.14773 23.9545C5.14773 24.6591 5.24148 25.2727 5.42898 25.7955C5.61648 26.3182 5.88636 26.7244 6.23864 27.0142C6.59659 27.2983 7.03409 27.4403 7.55114 27.4403ZM22.7919 30.7472C21.4226 30.7472 20.2408 30.4773 19.2464 29.9375C18.2578 29.392 17.4964 28.6165 16.9624 27.6108C16.4339 26.5994 16.1697 25.3977 16.1697 24.0057C16.1697 22.6534 16.4368 21.4716 16.9709 20.4602C17.505 19.4432 18.2578 18.6534 19.2294 18.0909C20.201 17.5227 21.3459 17.2386 22.6641 17.2386C23.5959 17.2386 24.4482 17.3835 25.2209 17.6733C25.9936 17.9631 26.6612 18.392 27.2237 18.9602C27.7862 19.5284 28.2237 20.2301 28.5362 21.0653C28.8487 21.8949 29.005 22.8466 29.005 23.9205V24.9602H17.6271V22.5398H25.1271C25.1214 22.0966 25.0163 21.7017 24.8118 21.3551C24.6072 21.0085 24.326 20.7386 23.968 20.5455C23.6158 20.3466 23.2095 20.2472 22.7493 20.2472C22.2834 20.2472 21.8658 20.3523 21.4964 20.5625C21.1271 20.767 20.8345 21.0483 20.6186 21.4062C20.4027 21.7585 20.2891 22.1591 20.2777 22.608V25.071C20.2777 25.6051 20.3828 26.0739 20.593 26.4773C20.8033 26.875 21.1016 27.1847 21.4879 27.4062C21.8743 27.6278 22.3345 27.7386 22.8686 27.7386C23.2379 27.7386 23.5732 27.6875 23.8743 27.5852C24.1754 27.483 24.4339 27.3324 24.6499 27.1335C24.8658 26.9347 25.0277 26.6903 25.1357 26.4006L28.9624 26.5114C28.8033 27.3693 28.4538 28.1165 27.9141 28.7528C27.38 29.3835 26.6783 29.875 25.8089 30.2273C24.9396 30.5739 23.9339 30.7472 22.7919 30.7472ZM43.4808 17.4091L38.9893 30.5H34.2166L29.7337 17.4091H34.1229L36.5348 26.4261H36.6712L39.0916 17.4091H43.4808ZM56.5078 21.4062L52.6811 21.5085C52.6413 21.2358 52.5334 20.9943 52.3572 20.7841C52.1811 20.5682 51.951 20.4006 51.6669 20.2812C51.3885 20.1562 51.0646 20.0938 50.6953 20.0938C50.2124 20.0938 49.8004 20.1903 49.4595 20.3835C49.1243 20.5767 48.9595 20.8381 48.9652 21.1676C48.9595 21.4233 49.0618 21.6449 49.272 21.8324C49.4879 22.0199 49.8714 22.1705 50.4226 22.2841L52.9453 22.7614C54.2521 23.0114 55.2237 23.4261 55.8601 24.0057C56.5021 24.5852 56.826 25.3523 56.8317 26.3068C56.826 27.2045 56.5589 27.9858 56.0305 28.6506C55.5078 29.3153 54.7919 29.8324 53.8828 30.2017C52.9737 30.5653 51.9339 30.7472 50.7635 30.7472C48.8942 30.7472 47.4197 30.3636 46.3402 29.5966C45.2663 28.8239 44.6527 27.7898 44.4993 26.4943L48.6158 26.392C48.7067 26.8693 48.9425 27.233 49.3232 27.483C49.7038 27.733 50.1896 27.858 50.7805 27.858C51.3146 27.858 51.7493 27.7585 52.0845 27.5597C52.4197 27.3608 52.5902 27.0966 52.5959 26.767C52.5902 26.4716 52.4595 26.2358 52.2038 26.0597C51.9482 25.8778 51.5476 25.7358 51.0021 25.6335L48.718 25.1989C47.4055 24.9602 46.4283 24.5199 45.7862 23.8778C45.1442 23.2301 44.826 22.4062 44.8317 21.4062C44.826 20.5312 45.0589 19.7841 45.5305 19.1648C46.0021 18.5398 46.6726 18.0625 47.5419 17.733C48.4112 17.4034 49.4368 17.2386 50.6186 17.2386C52.3913 17.2386 53.7891 17.6108 54.8118 18.3551C55.8345 19.0937 56.3999 20.1108 56.5078 21.4062ZM66.2727 17.4091V20.4773H58.0142V17.4091H66.2727ZM59.7443 14.2727H63.9119V26.3835C63.9119 26.6392 63.9517 26.8466 64.0312 27.0057C64.1165 27.1591 64.2386 27.2699 64.3977 27.3381C64.5568 27.4006 64.7472 27.4318 64.9688 27.4318C65.1278 27.4318 65.2955 27.4176 65.4716 27.3892C65.6534 27.3551 65.7898 27.3267 65.8807 27.304L66.5114 30.3125C66.3125 30.3693 66.0313 30.4403 65.6676 30.5256C65.3097 30.6108 64.8807 30.6648 64.3807 30.6875C63.4034 30.733 62.5653 30.6193 61.8665 30.3466C61.1733 30.0682 60.642 29.6364 60.2727 29.0511C59.9091 28.4659 59.733 27.7301 59.7443 26.8438V14.2727ZM74.3693 30.7472C72.9943 30.7472 71.8125 30.4659 70.8239 29.9034C69.8409 29.3352 69.0824 28.5455 68.5483 27.5341C68.0199 26.517 67.7557 25.3381 67.7557 23.9972C67.7557 22.6506 68.0199 21.4716 68.5483 20.4602C69.0824 19.4432 69.8409 18.6534 70.8239 18.0909C71.8125 17.5227 72.9943 17.2386 74.3693 17.2386C75.7443 17.2386 76.9233 17.5227 77.9062 18.0909C78.8949 18.6534 79.6534 19.4432 80.1818 20.4602C80.7159 21.4716 80.983 22.6506 80.983 23.9972C80.983 25.3381 80.7159 26.517 80.1818 27.5341C79.6534 28.5455 78.8949 29.3352 77.9062 29.9034C76.9233 30.4659 75.7443 30.7472 74.3693 30.7472ZM74.3949 27.6023C74.8949 27.6023 75.3182 27.4489 75.6648 27.142C76.0114 26.8352 76.2756 26.4091 76.4574 25.8636C76.6449 25.3182 76.7386 24.6875 76.7386 23.9716C76.7386 23.2443 76.6449 22.608 76.4574 22.0625C76.2756 21.517 76.0114 21.0909 75.6648 20.7841C75.3182 20.4773 74.8949 20.3239 74.3949 20.3239C73.8778 20.3239 73.4403 20.4773 73.0824 20.7841C72.7301 21.0909 72.4602 21.517 72.2727 22.0625C72.0909 22.608 72 23.2443 72 23.9716C72 24.6875 72.0909 25.3182 72.2727 25.8636C72.4602 26.4091 72.7301 26.8352 73.0824 27.142C73.4403 27.4489 73.8778 27.6023 74.3949 27.6023ZM83.1179 30.5V17.4091H87.1662V19.7955H87.3026C87.5412 18.9318 87.9304 18.2898 88.4702 17.8693C89.0099 17.4432 89.6378 17.2301 90.3537 17.2301C90.5469 17.2301 90.7457 17.2443 90.9503 17.2727C91.1548 17.2955 91.3452 17.3324 91.5213 17.3835V21.0057C91.3224 20.9375 91.0611 20.8835 90.7372 20.8438C90.419 20.804 90.1349 20.7841 89.8849 20.7841C89.3906 20.7841 88.9446 20.8949 88.5469 21.1165C88.1548 21.3324 87.8452 21.6364 87.6179 22.0284C87.3963 22.4148 87.2855 22.8693 87.2855 23.392V30.5H83.1179ZM98.6591 30.7472C97.2898 30.7472 96.108 30.4773 95.1136 29.9375C94.125 29.392 93.3636 28.6165 92.8295 27.6108C92.3011 26.5994 92.0369 25.3977 92.0369 24.0057C92.0369 22.6534 92.304 21.4716 92.8381 20.4602C93.3722 19.4432 94.125 18.6534 95.0966 18.0909C96.0682 17.5227 97.2131 17.2386 98.5312 17.2386C99.4631 17.2386 100.315 17.3835 101.088 17.6733C101.861 17.9631 102.528 18.392 103.091 18.9602C103.653 19.5284 104.091 20.2301 104.403 21.0653C104.716 21.8949 104.872 22.8466 104.872 23.9205V24.9602H93.4943V22.5398H100.994C100.989 22.0966 100.884 21.7017 100.679 21.3551C100.474 21.0085 100.193 20.7386 99.8352 20.5455C99.483 20.3466 99.0767 20.2472 98.6165 20.2472C98.1506 20.2472 97.733 20.3523 97.3636 20.5625C96.9943 20.767 96.7017 21.0483 96.4858 21.4062C96.2699 21.7585 96.1563 22.1591 96.1449 22.608V25.071C96.1449 25.6051 96.25 26.0739 96.4602 26.4773C96.6705 26.875 96.9688 27.1847 97.3551 27.4062C97.7415 27.6278 98.2017 27.7386 98.7358 27.7386C99.1051 27.7386 99.4403 27.6875 99.7415 27.5852C100.043 27.483 100.301 27.3324 100.517 27.1335C100.733 26.9347 100.895 26.6903 101.003 26.4006L104.83 26.5114C104.67 27.3693 104.321 28.1165 103.781 28.7528C103.247 29.3835 102.545 29.875 101.676 30.2273C100.807 30.5739 99.8011 30.7472 98.6591 30.7472Z" fill="white"/>
<rect x="126" width="320" height="44" rx="22" fill="#18181B"/>
<path d="M155.167 27.8333C158.849 27.8333 161.833 24.8486 161.833 21.1667C161.833 17.4848 158.849 14.5 155.167 14.5C151.485 14.5 148.5 17.4848 148.5 21.1667C148.5 24.8486 151.485 27.8333 155.167 27.8333Z" stroke="#71717A" stroke-width="1.66667" stroke-linecap="round" stroke-linejoin="round"/>
<path d="M163.5 29.5L159.917 25.9167" stroke="#71717A" stroke-width="1.66667" stroke-linecap="round" stroke-linejoin="round"/>
<path d="M179.233 27.5V17.3182H182.793C183.502 17.3182 184.087 17.4408 184.548 17.6861C185.008 17.928 185.351 18.2545 185.577 18.6655C185.802 19.0732 185.915 19.5256 185.915 20.0227C185.915 20.4602 185.837 20.8215 185.681 21.1065C185.529 21.3916 185.326 21.617 185.075 21.7827C184.826 21.9484 184.556 22.071 184.264 22.1506V22.25C184.576 22.2699 184.889 22.3793 185.204 22.5781C185.519 22.777 185.782 23.062 185.994 23.4332C186.206 23.8045 186.312 24.2585 186.312 24.7955C186.312 25.3059 186.196 25.7649 185.964 26.1726C185.732 26.5803 185.366 26.9034 184.866 27.142C184.365 27.3807 183.714 27.5 182.912 27.5H179.233ZM180.466 26.4062H182.912C183.717 26.4062 184.289 26.2505 184.627 25.9389C184.969 25.6241 185.139 25.2429 185.139 24.7955C185.139 24.4508 185.051 24.1326 184.876 23.8409C184.7 23.5459 184.45 23.3106 184.125 23.1349C183.8 22.956 183.416 22.8665 182.972 22.8665H180.466V26.4062ZM180.466 21.7926H182.753C183.124 21.7926 183.459 21.7197 183.757 21.5739C184.059 21.428 184.297 21.2225 184.473 20.9574C184.652 20.6922 184.741 20.3807 184.741 20.0227C184.741 19.5753 184.586 19.1958 184.274 18.8842C183.963 18.5694 183.469 18.4119 182.793 18.4119H180.466V21.7926ZM192.992 24.3778V19.8636H194.165V27.5H192.992V26.2074H192.912C192.733 26.5952 192.455 26.925 192.077 27.1967C191.699 27.4652 191.222 27.5994 190.645 27.5994C190.168 27.5994 189.744 27.495 189.373 27.2862C189.001 27.0741 188.71 26.7559 188.498 26.3317C188.285 25.9041 188.179 25.3655 188.179 24.7159V19.8636H189.353V24.6364C189.353 25.1932 189.508 25.6373 189.82 25.9688C190.135 26.3002 190.536 26.4659 191.023 26.4659C191.315 26.4659 191.611 26.3913 191.913 26.2422C192.218 26.093 192.473 25.8643 192.679 25.5561C192.887 25.2479 192.992 24.8551 192.992 24.3778ZM201.723 21.5739L200.669 21.8722C200.603 21.6965 200.505 21.5258 200.376 21.3601C200.25 21.1911 200.078 21.0518 199.859 20.9425C199.64 20.8331 199.36 20.7784 199.019 20.7784C198.551 20.7784 198.162 20.8861 197.85 21.1016C197.542 21.3137 197.388 21.5838 197.388 21.9119C197.388 22.2036 197.494 22.4339 197.706 22.603C197.918 22.772 198.25 22.9129 198.7 23.0256L199.834 23.304C200.517 23.4697 201.026 23.7232 201.36 24.0646C201.695 24.4027 201.862 24.8385 201.862 25.3722C201.862 25.8097 201.736 26.2008 201.485 26.5455C201.236 26.8902 200.888 27.1619 200.441 27.3608C199.993 27.5597 199.473 27.6591 198.879 27.6591C198.101 27.6591 197.456 27.4901 196.945 27.152C196.435 26.8139 196.112 26.3201 195.976 25.6705L197.09 25.392C197.196 25.803 197.396 26.1113 197.691 26.3168C197.99 26.5223 198.379 26.625 198.86 26.625C199.406 26.625 199.841 26.509 200.162 26.277C200.487 26.0417 200.649 25.7599 200.649 25.4318C200.649 25.1667 200.557 24.9446 200.371 24.7656C200.185 24.5833 199.9 24.4474 199.516 24.358L198.243 24.0597C197.544 23.8939 197.03 23.6371 196.702 23.2891C196.377 22.9377 196.215 22.4986 196.215 21.9716C196.215 21.5407 196.336 21.1596 196.578 20.8281C196.823 20.4967 197.156 20.2365 197.577 20.0476C198.001 19.8587 198.482 19.7642 199.019 19.7642C199.774 19.7642 200.368 19.9299 200.798 20.2614C201.233 20.5928 201.541 21.0303 201.723 21.5739ZM206.731 27.6591C206.015 27.6591 205.398 27.4901 204.881 27.152C204.364 26.8139 203.967 26.3482 203.688 25.755C203.41 25.1617 203.271 24.4839 203.271 23.7216C203.271 22.946 203.413 22.2616 203.698 21.6683C203.987 21.0717 204.388 20.6061 204.901 20.2713C205.418 19.9332 206.022 19.7642 206.711 19.7642C207.248 19.7642 207.732 19.8636 208.163 20.0625C208.594 20.2614 208.946 20.5398 209.222 20.8977C209.497 21.2557 209.667 21.6733 209.734 22.1506H208.56C208.471 21.8026 208.272 21.4943 207.964 21.2259C207.659 20.9541 207.248 20.8182 206.731 20.8182C206.273 20.8182 205.872 20.9375 205.528 21.1761C205.186 21.4115 204.92 21.7446 204.727 22.1754C204.538 22.603 204.444 23.1051 204.444 23.6818C204.444 24.2718 204.537 24.7855 204.722 25.223C204.911 25.6605 205.176 26.0002 205.518 26.2422C205.862 26.4841 206.267 26.6051 206.731 26.6051C207.036 26.6051 207.312 26.5521 207.561 26.446C207.81 26.34 208.02 26.1875 208.192 25.9886C208.365 25.7898 208.487 25.5511 208.56 25.2727H209.734C209.667 25.7235 209.503 26.1295 209.241 26.4908C208.983 26.8487 208.64 27.1338 208.212 27.3459C207.788 27.5547 207.294 27.6591 206.731 27.6591ZM213.696 27.679C213.212 27.679 212.773 27.5878 212.379 27.4055C211.984 27.2199 211.671 26.9531 211.439 26.6051C211.207 26.2538 211.091 25.8295 211.091 25.3324C211.091 24.8949 211.177 24.5402 211.349 24.2685C211.522 23.9934 211.752 23.7779 212.04 23.6222C212.329 23.4664 212.647 23.3504 212.995 23.2741C213.346 23.1946 213.699 23.1316 214.054 23.0852C214.518 23.0256 214.894 22.9808 215.183 22.951C215.474 22.9179 215.686 22.8632 215.819 22.7869C215.955 22.7107 216.023 22.5781 216.023 22.3892V22.3494C216.023 21.8589 215.888 21.4777 215.62 21.206C215.355 20.9342 214.952 20.7983 214.412 20.7983C213.852 20.7983 213.413 20.9209 213.094 21.1662C212.776 21.4115 212.553 21.6733 212.423 21.9517L211.31 21.554C211.509 21.09 211.774 20.7287 212.105 20.4702C212.44 20.2083 212.804 20.026 213.199 19.9233C213.597 19.8172 213.988 19.7642 214.372 19.7642C214.617 19.7642 214.899 19.794 215.217 19.8537C215.539 19.91 215.849 20.0277 216.147 20.2067C216.449 20.3857 216.699 20.6558 216.898 21.017C217.097 21.3783 217.196 21.8622 217.196 22.4688V27.5H216.023V26.4659H215.963C215.884 26.6316 215.751 26.8089 215.565 26.9979C215.38 27.1868 215.133 27.3475 214.825 27.4801C214.516 27.6127 214.14 27.679 213.696 27.679ZM213.875 26.625C214.339 26.625 214.73 26.5339 215.048 26.3516C215.37 26.1693 215.612 25.9339 215.774 25.6456C215.94 25.3572 216.023 25.054 216.023 24.7358V23.6619C215.973 23.7216 215.864 23.7763 215.695 23.826C215.529 23.8724 215.337 23.9138 215.118 23.9503C214.902 23.9834 214.692 24.0133 214.487 24.0398C214.284 24.063 214.12 24.0829 213.994 24.0994C213.689 24.1392 213.404 24.2038 213.139 24.2933C212.877 24.3795 212.665 24.5104 212.503 24.6861C212.344 24.8584 212.264 25.0937 212.264 25.392C212.264 25.7997 212.415 26.108 212.717 26.3168C213.022 26.5223 213.408 26.625 213.875 26.625ZM219.338 27.5V19.8636H220.471V21.017H220.551C220.69 20.6392 220.942 20.3326 221.306 20.0973C221.671 19.862 222.082 19.7443 222.539 19.7443C222.625 19.7443 222.733 19.746 222.862 19.7493C222.992 19.7526 223.089 19.7576 223.156 19.7642V20.9574C223.116 20.9474 223.025 20.9325 222.882 20.9126C222.743 20.8894 222.596 20.8778 222.44 20.8778C222.069 20.8778 221.737 20.9557 221.445 21.1115C221.157 21.264 220.928 21.4761 220.759 21.7479C220.594 22.0163 220.511 22.3229 220.511 22.6676V27.5H219.338ZM228.484 30.3636V19.8636H229.618V21.0767H229.757C229.843 20.9441 229.962 20.7751 230.115 20.5696C230.27 20.3608 230.493 20.1752 230.781 20.0128C231.073 19.8471 231.467 19.7642 231.964 19.7642C232.607 19.7642 233.174 19.925 233.664 20.2464C234.155 20.5679 234.538 21.0237 234.813 21.6136C235.088 22.2036 235.225 22.8996 235.225 23.7017C235.225 24.5104 235.088 25.2114 234.813 25.8047C234.538 26.3946 234.157 26.852 233.669 27.1768C233.182 27.4983 232.62 27.6591 231.984 27.6591C231.493 27.6591 231.101 27.5779 230.806 27.4155C230.511 27.2498 230.284 27.0625 230.125 26.8537C229.966 26.6416 229.843 26.4659 229.757 26.3267H229.657V30.3636H228.484ZM229.637 23.6818C229.637 24.2585 229.722 24.7673 229.891 25.2081C230.06 25.6456 230.307 25.9886 230.632 26.2372C230.957 26.4825 231.354 26.6051 231.825 26.6051C232.315 26.6051 232.725 26.4759 233.053 26.2173C233.384 25.9555 233.633 25.6042 233.799 25.1634C233.968 24.7192 234.052 24.2254 234.052 23.6818C234.052 23.1449 233.969 22.661 233.804 22.2301C233.641 21.7959 233.394 21.4529 233.063 21.201C232.735 20.9458 232.322 20.8182 231.825 20.8182C231.348 20.8182 230.947 20.9392 230.622 21.1811C230.297 21.4197 230.052 21.7545 229.886 22.1854C229.72 22.6129 229.637 23.1117 229.637 23.6818ZM237.015 27.5V19.8636H238.149V21.017H238.228C238.368 20.6392 238.619 20.3326 238.984 20.0973C239.349 19.862 239.76 19.7443 240.217 19.7443C240.303 19.7443 240.411 19.746 240.54 19.7493C240.669 19.7526 240.767 19.7576 240.833 19.7642V20.9574C240.794 20.9474 240.703 20.9325 240.56 20.9126C240.421 20.8894 240.273 20.8778 240.118 20.8778C239.746 20.8778 239.415 20.9557 239.123 21.1115C238.835 21.264 238.606 21.4761 238.437 21.7479C238.271 22.0163 238.189 22.3229 238.189 22.6676V27.5H237.015ZM245.094 27.6591C244.405 27.6591 243.8 27.495 243.279 27.1669C242.762 26.8388 242.358 26.3797 242.066 25.7898C241.778 25.1998 241.634 24.5104 241.634 23.7216C241.634 22.9261 241.778 22.2318 242.066 21.6385C242.358 21.0452 242.762 20.5845 243.279 20.2564C243.8 19.9283 244.405 19.7642 245.094 19.7642C245.783 19.7642 246.387 19.9283 246.904 20.2564C247.424 20.5845 247.828 21.0452 248.117 21.6385C248.408 22.2318 248.554 22.9261 248.554 23.7216C248.554 24.5104 248.408 25.1998 248.117 25.7898C247.828 26.3797 247.424 26.8388 246.904 27.1669C246.387 27.495 245.783 27.6591 245.094 27.6591ZM245.094 26.6051C245.618 26.6051 246.049 26.4709 246.387 26.2024C246.725 25.9339 246.975 25.581 247.137 25.1435C247.3 24.706 247.381 24.232 247.381 23.7216C247.381 23.2112 247.3 22.7356 247.137 22.2947C246.975 21.8539 246.725 21.4976 246.387 21.2259C246.049 20.9541 245.618 20.8182 245.094 20.8182C244.57 20.8182 244.14 20.9541 243.801 21.2259C243.463 21.4976 243.213 21.8539 243.051 22.2947C242.888 22.7356 242.807 23.2112 242.807 23.7216C242.807 24.232 242.888 24.706 243.051 25.1435C243.213 25.581 243.463 25.9339 243.801 26.2024C244.14 26.4709 244.57 26.6051 245.094 26.6051ZM253.229 27.6591C252.593 27.6591 252.031 27.4983 251.544 27.1768C251.056 26.852 250.675 26.3946 250.4 25.8047C250.125 25.2114 249.987 24.5104 249.987 23.7017C249.987 22.8996 250.125 22.2036 250.4 21.6136C250.675 21.0237 251.058 20.5679 251.548 20.2464C252.039 19.925 252.606 19.7642 253.249 19.7642C253.746 19.7642 254.139 19.8471 254.427 20.0128C254.719 20.1752 254.941 20.3608 255.093 20.5696C255.249 20.7751 255.37 20.9441 255.456 21.0767H255.556V17.3182H256.729V27.5H255.595V26.3267H255.456C255.37 26.4659 255.247 26.6416 255.088 26.8537C254.929 27.0625 254.702 27.2498 254.407 27.4155C254.112 27.5779 253.719 27.6591 253.229 27.6591ZM253.388 26.6051C253.859 26.6051 254.256 26.4825 254.581 26.2372C254.906 25.9886 255.153 25.6456 255.322 25.2081C255.491 24.7673 255.575 24.2585 255.575 23.6818C255.575 23.1117 255.493 22.6129 255.327 22.1854C255.161 21.7545 254.916 21.4197 254.591 21.1811C254.266 20.9392 253.865 20.8182 253.388 20.8182C252.891 20.8182 252.477 20.9458 252.145 21.201C251.817 21.4529 251.57 21.7959 251.404 22.2301C251.242 22.661 251.161 23.1449 251.161 23.6818C251.161 24.2254 251.244 24.7192 251.409 25.1634C251.578 25.6042 251.827 25.9555 252.155 26.2173C252.486 26.4759 252.897 26.6051 253.388 26.6051ZM263.853 24.3778V19.8636H265.026V27.5H263.853V26.2074H263.774C263.595 26.5952 263.316 26.925 262.938 27.1967C262.561 27.4652 262.083 27.5994 261.507 27.5994C261.029 27.5994 260.605 27.495 260.234 27.2862C259.863 27.0741 259.571 26.7559 259.359 26.3317C259.147 25.9041 259.041 25.3655 259.041 24.7159V19.8636H260.214V24.6364C260.214 25.1932 260.37 25.6373 260.681 25.9688C260.996 26.3002 261.397 26.4659 261.884 26.4659C262.176 26.4659 262.473 26.3913 262.774 26.2422C263.079 26.093 263.334 25.8643 263.54 25.5561C263.749 25.2479 263.853 24.8551 263.853 24.3778ZM270.496 19.8636V20.858H266.539V19.8636H270.496ZM267.692 18.0341H268.866V25.3125C268.866 25.6439 268.914 25.8925 269.01 26.0582C269.109 26.2206 269.235 26.33 269.388 26.3864C269.544 26.4394 269.708 26.4659 269.88 26.4659C270.009 26.4659 270.115 26.4593 270.198 26.446C270.281 26.4295 270.347 26.4162 270.397 26.4062L270.636 27.4602C270.556 27.4901 270.445 27.5199 270.303 27.5497C270.16 27.5829 269.979 27.5994 269.761 27.5994C269.429 27.5994 269.104 27.5282 268.786 27.3857C268.471 27.2431 268.21 27.026 268.001 26.7344C267.795 26.4427 267.692 26.0748 267.692 25.6307V18.0341ZM275.282 27.6591C274.592 27.6591 273.987 27.495 273.467 27.1669C272.95 26.8388 272.546 26.3797 272.254 25.7898C271.966 25.1998 271.821 24.5104 271.821 23.7216C271.821 22.9261 271.966 22.2318 272.254 21.6385C272.546 21.0452 272.95 20.5845 273.467 20.2564C273.987 19.9283 274.592 19.7642 275.282 19.7642C275.971 19.7642 276.574 19.9283 277.091 20.2564C277.612 20.5845 278.016 21.0452 278.304 21.6385C278.596 22.2318 278.742 22.9261 278.742 23.7216C278.742 24.5104 278.596 25.1998 278.304 25.7898C278.016 26.3797 277.612 26.8388 277.091 27.1669C276.574 27.495 275.971 27.6591 275.282 27.6591ZM275.282 26.6051C275.805 26.6051 276.236 26.4709 276.574 26.2024C276.912 25.9339 277.163 25.581 277.325 25.1435C277.487 24.706 277.569 24.232 277.569 23.7216C277.569 23.2112 277.487 22.7356 277.325 22.2947C277.163 21.8539 276.912 21.4976 276.574 21.2259C276.236 20.9541 275.805 20.8182 275.282 20.8182C274.758 20.8182 274.327 20.9541 273.989 21.2259C273.651 21.4976 273.401 21.8539 273.238 22.2947C273.076 22.7356 272.995 23.2112 272.995 23.7216C272.995 24.232 273.076 24.706 273.238 25.1435C273.401 25.581 273.651 25.9339 273.989 26.2024C274.327 26.4709 274.758 26.6051 275.282 26.6051ZM285.942 21.5739L284.888 21.8722C284.822 21.6965 284.724 21.5258 284.595 21.3601C284.469 21.1911 284.296 21.0518 284.078 20.9425C283.859 20.8331 283.579 20.7784 283.237 20.7784C282.77 20.7784 282.381 20.8861 282.069 21.1016C281.761 21.3137 281.607 21.5838 281.607 21.9119C281.607 22.2036 281.713 22.4339 281.925 22.603C282.137 22.772 282.468 22.9129 282.919 23.0256L284.053 23.304C284.735 23.4697 285.244 23.7232 285.579 24.0646C285.914 24.4027 286.081 24.8385 286.081 25.3722C286.081 25.8097 285.955 26.2008 285.703 26.5455C285.455 26.8902 285.107 27.1619 284.659 27.3608C284.212 27.5597 283.691 27.6591 283.098 27.6591C282.319 27.6591 281.675 27.4901 281.164 27.152C280.654 26.8139 280.331 26.3201 280.195 25.6705L281.308 25.392C281.414 25.803 281.615 26.1113 281.91 26.3168C282.208 26.5223 282.598 26.625 283.078 26.625C283.625 26.625 284.059 26.509 284.381 26.277C284.706 26.0417 284.868 25.7599 284.868 25.4318C284.868 25.1667 284.775 24.9446 284.59 24.7656C284.404 24.5833 284.119 24.4474 283.735 24.358L282.462 24.0597C281.762 23.8939 281.249 23.6371 280.921 23.2891C280.596 22.9377 280.433 22.4986 280.433 21.9716C280.433 21.5407 280.554 21.1596 280.796 20.8281C281.042 20.4967 281.375 20.2365 281.796 20.0476C282.22 19.8587 282.7 19.7642 283.237 19.7642C283.993 19.7642 284.586 19.9299 285.017 20.2614C285.451 20.5928 285.76 21.0303 285.942 21.5739ZM288.702 27.5795C288.457 27.5795 288.247 27.4917 288.071 27.3161C287.895 27.1404 287.808 26.9299 287.808 26.6847C287.808 26.4394 287.895 26.2289 288.071 26.0533C288.247 25.8776 288.457 25.7898 288.702 25.7898C288.948 25.7898 289.158 25.8776 289.334 26.0533C289.509 26.2289 289.597 26.4394 289.597 26.6847C289.597 26.8471 289.556 26.9962 289.473 27.1321C289.393 27.268 289.286 27.3774 289.15 27.4602C289.017 27.5398 288.868 27.5795 288.702 27.5795ZM292.558 27.5795C292.313 27.5795 292.102 27.4917 291.926 27.3161C291.751 27.1404 291.663 26.9299 291.663 26.6847C291.663 26.4394 291.751 26.2289 291.926 26.0533C292.102 25.8776 292.313 25.7898 292.558 25.7898C292.803 25.7898 293.014 25.8776 293.189 26.0533C293.365 26.2289 293.453 26.4394 293.453 26.6847C293.453 26.8471 293.411 26.9962 293.328 27.1321C293.249 27.268 293.141 27.3774 293.005 27.4602C292.873 27.5398 292.724 27.5795 292.558 27.5795ZM296.413 27.5795C296.168 27.5795 295.958 27.4917 295.782 27.3161C295.606 27.1404 295.518 26.9299 295.518 26.6847C295.518 26.4394 295.606 26.2289 295.782 26.0533C295.958 25.8776 296.168 25.7898 296.413 25.7898C296.659 25.7898 296.869 25.8776 297.045 26.0533C297.22 26.2289 297.308 26.4394 297.308 26.6847C297.308 26.8471 297.267 26.9962 297.184 27.1321C297.104 27.268 296.997 27.3774 296.861 27.4602C296.728 27.5398 296.579 27.5795 296.413 27.5795Z" fill="#71717A"/>
</svg>
