<svg width="22" height="24" viewBox="0 0 22 24" fill="none" xmlns="http://www.w3.org/2000/svg">
<g filter="url(#filter0_d_4_731)">
<path d="M7 1.33331L5 3.99998V13.3333C5 13.6869 5.14048 14.0261 5.39052 14.2761C5.64057 14.5262 5.97971 14.6666 6.33333 14.6666H15.6667C16.0203 14.6666 16.3594 14.5262 16.6095 14.2761C16.8595 14.0261 17 13.6869 17 13.3333V3.99998L15 1.33331H7Z" stroke="#F9FAFB" stroke-width="1.33333" stroke-linecap="round" stroke-linejoin="round"/>
<path d="M5 4H17" stroke="#F9FAFB" stroke-width="1.33333" stroke-linecap="round" stroke-linejoin="round"/>
<path d="M13.6667 6.66663C13.6667 7.37387 13.3858 8.05215 12.8857 8.55224C12.3856 9.05234 11.7073 9.33329 11 9.33329C10.2928 9.33329 9.61452 9.05234 9.11442 8.55224C8.61433 8.05215 8.33337 7.37387 8.33337 6.66663" stroke="#F9FAFB" stroke-width="1.33333" stroke-linecap="round" stroke-linejoin="round"/>
</g>
<defs>
<filter id="filter0_d_4_731" x="-1" y="0" width="24" height="24" filterUnits="userSpaceOnUse" color-interpolation-filters="sRGB">
<feFlood flood-opacity="0" result="BackgroundImageFix"/>
<feColorMatrix in="SourceAlpha" type="matrix" values="0 0 0 0 0 0 0 0 0 0 0 0 0 0 0 0 0 0 127 0" result="hardAlpha"/>
<feOffset dy="4"/>
<feGaussianBlur stdDeviation="2"/>
<feComposite in2="hardAlpha" operator="out"/>
<feColorMatrix type="matrix" values="0 0 0 0 0 0 0 0 0 0 0 0 0 0 0 0 0 0 0.25 0"/>
<feBlend mode="normal" in2="BackgroundImageFix" result="effect1_dropShadow_4_731"/>
<feBlend mode="normal" in="SourceGraphic" in2="effect1_dropShadow_4_731" result="shape"/>
</filter>
</defs>
</svg>
